# xmcd CD database file
#
# Track frame offsets:
#	150
#	21882
#	45310
#	64052
#	76321
#	96348
#	110691
#	129949
#	143911
#	162372
#	181225
#	196483
#	205596
#	221277
#
# Disc length: 3135 seconds
#
# Revision: 0
# Processed by: cddbd v1.5.2PL0 Copyright (c) Steve Scherf et al.
# Submitted via: CDex 1.51
#
DISCID=bc0c3d0e
DTITLE=Various Artist - Double Dose, Live from Studio A - Vol. 9 D1
DYEAR=2003
DGENRE=Jazz
TTITLE0=Bread Line Blues - Jorma Kankonen
TTITLE1=Instrumental Jam - The Miss Kitty Hot Box Band
TTITLE2=Linger - Jonatha Brooke
TTITLE3=Prociasso - Vinicius Cantuaria
TTITLE4=Oregonia - Moviola
TTITLE5=I Made a Mess of This Town - Scott Miller
TTITLE6=Holy Dice - The Recipe
TTITLE7=The South Bound Train - One Riot One Ranger
TTITLE8=Home in Your Heart - The Derek Trucks Band
TTITLE9=Quick - Eddie from Ohio
TTITLE10=Stronger - Darden Smith
TTITLE11=Johnson Girls - Rami Arbo and Daisy Mayhem
TTITLE12=23rd Street - Bill Morrissey
TTITLE13=Mission Temple Fireworks Stand - Paul Thorn
EXTD=YEAR: 2003
EXTT0=
EXTT1=
EXTT2=
EXTT3=
EXTT4=
EXTT5=
EXTT6=
EXTT7=
EXTT8=
EXTT9=
EXTT10=
EXTT11=
EXTT12=
EXTT13=
PLAYORDER=
